<?xml version="1.0" standalone="no"?>
<!DOCTYPE svg PUBLIC "-//W3C//DTD SVG 20010904//EN"
 "http://www.w3.org/TR/2001/REC-SVG-20010904/DTD/svg10.dtd">
<svg version="1.0" xmlns="http://www.w3.org/2000/svg"
 width="500.000000pt" height="500.000000pt" viewBox="0 0 500.000000 500.000000"
 preserveAspectRatio="xMidYMid meet">
<metadata>
Created by potrace 1.14, written by Peter Selinger 2001-2017
</metadata>
<g transform="translate(0.000000,500.000000) scale(0.100000,-0.100000)"
fill="#000000" stroke="none">
<path d="M0 2500 l0 -2500 2500 0 2500 0 0 2500 0 2500 -2500 0 -2500 0 0
-2500z m4760 0 l0 -2260 -2260 0 -2260 0 0 2260 0 2260 2260 0 2260 0 0 -2260z"/>
<path d="M370 2500 l0 -2120 2125 0 2125 0 0 2120 0 2120 -2125 0 -2125 0 0
-2120z m1298 163 c-3 -594 -3 -598 -26 -661 -74 -206 -239 -311 -489 -312
-113 0 -179 13 -263 53 -78 37 -167 121 -204 195 -21 42 -55 154 -56 185 0 4
61 7 135 7 l134 0 11 -38 c15 -60 62 -116 117 -143 38 -18 64 -23 123 -23 85
0 142 23 192 77 55 61 58 88 58 569 l0 438 -275 0 -275 0 0 125 0 125 411 0
410 0 -3 -597z m1016 589 c3 -4 93 -345 201 -758 108 -412 199 -757 201 -766
5 -17 -6 -18 -133 -18 l-139 0 -45 193 -46 192 -225 3 -224 2 -38 -161 c-21
-89 -43 -177 -48 -196 l-9 -33 -134 0 c-74 0 -135 3 -135 7 0 12 401 1498 410
1521 9 22 13 22 184 22 96 0 177 -4 180 -8z m932 -324 c94 -213 148 -350 156
-392 7 -37 16 -66 19 -66 4 0 12 28 19 63 7 37 69 196 153 392 l142 330 139 3
c129 2 138 1 133 -15 -2 -10 -106 -239 -231 -509 l-226 -491 0 -267 0 -266
-135 0 -135 0 0 272 0 271 -225 488 c-124 268 -228 495 -231 504 -6 14 10 15
136 13 l141 -3 145 -327z"/>
<path d="M2486 3024 c-4 -33 -41 -202 -82 -377 -41 -174 -74 -322 -74 -327 0
-6 64 -10 171 -10 157 0 170 1 165 18 -21 75 -147 629 -152 672 -10 82 -20 91
-28 24z"/>
</g>
</svg>
