<?xml version="1.0" standalone="no"?>
<!DOCTYPE svg PUBLIC "-//W3C//DTD SVG 20010904//EN"
 "http://www.w3.org/TR/2001/REC-SVG-20010904/DTD/svg10.dtd">
<svg version="1.0" xmlns="http://www.w3.org/2000/svg"
 width="525.000000pt" height="525.000000pt" viewBox="0 0 525.000000 525.000000"
 preserveAspectRatio="xMidYMid meet">
<metadata>
Created by potrace 1.14, written by Peter Selinger 2001-2017
</metadata>
<g transform="translate(0.000000,525.000000) scale(0.100000,-0.100000)"
fill="#000000" stroke="none">
<path d="M2399 4910 c-26 -4 -55 -12 -65 -18 -11 -5 -33 -12 -51 -15 -18 -4
-74 -35 -125 -70 -115 -77 -156 -96 -169 -76 -5 8 -9 30 -10 49 0 33 -1 33
-11 12 -8 -16 -8 -32 -1 -56 10 -31 8 -37 -17 -61 -23 -22 -32 -25 -48 -16
-18 9 -19 8 -14 -11 4 -17 2 -20 -11 -15 -10 4 -17 2 -17 -3 0 -5 -27 -35 -61
-67 -59 -57 -180 -219 -198 -265 -5 -13 -18 -44 -29 -68 -12 -25 -30 -81 -42
-125 -21 -81 -21 -102 -4 -300 9 -97 11 -109 23 -138 15 -37 16 -34 -25 -72
-23 -22 -34 -40 -30 -50 7 -20 -3 -47 -16 -39 -6 4 -7 -2 -3 -16 5 -15 4 -20
-4 -16 -7 5 -11 -1 -11 -14 0 -13 4 -19 12 -14 8 5 9 -5 5 -35 -3 -24 -3 -40
0 -37 4 3 14 -17 24 -44 13 -38 17 -71 13 -136 -2 -47 -6 -89 -8 -92 -2 -4 9
-8 25 -9 40 -3 59 34 35 68 -11 16 -16 45 -16 96 0 99 24 146 61 122 12 -7 12
-9 0 -9 -9 0 -11 -7 -8 -22 4 -12 -2 -48 -13 -81 -20 -60 -18 -129 3 -108 6 6
14 11 19 11 18 0 36 -61 42 -145 l7 -90 -28 -18 c-20 -13 -22 -17 -8 -14 11 3
27 8 36 12 14 5 18 -3 24 -45 12 -84 65 -199 147 -316 15 -22 30 -57 33 -79 6
-38 5 -41 -24 -53 -38 -17 -75 -90 -73 -144 4 -101 58 -226 152 -353 20 -28
44 -64 53 -82 9 -17 23 -35 29 -39 10 -6 11 -4 1 7 -7 7 -13 19 -13 25 0 7
-17 50 -38 96 -61 131 -65 148 -51 218 6 33 9 76 6 95 -3 19 -2 35 4 35 5 0 9
-5 9 -11 0 -5 5 -7 10 -4 6 3 13 -1 16 -9 8 -21 24 -21 24 0 0 11 6 14 21 9
15 -5 19 -4 15 4 -9 15 -1 14 16 -1 27 -25 78 -47 94 -41 9 3 27 -5 42 -19 15
-13 39 -30 54 -37 21 -11 25 -18 18 -30 -6 -13 -4 -17 11 -19 42 -4 49 -6 49
-12 0 -6 107 -14 208 -14 34 -1 62 -3 62 -7 0 -3 15 -3 32 -1 30 5 32 3 19
-12 -17 -20 -7 -21 24 0 14 9 36 14 50 12 14 -3 25 -2 25 3 0 4 11 6 25 4 14
-1 25 2 25 6 0 5 7 9 15 9 26 0 118 46 185 92 47 32 65 51 66 68 1 13 8 29 17
35 9 7 12 16 8 24 -6 10 -10 9 -14 -3 -4 -9 -12 -16 -19 -16 -8 0 -20 -9 -28
-20 -17 -23 -27 -25 -33 -7 -2 6 -2 0 0 -14 3 -17 -1 -29 -11 -32 -17 -7 -30
8 -21 22 3 5 1 12 -5 16 -5 3 -15 -5 -21 -19 -6 -13 -20 -27 -30 -29 -23 -6
-23 -3 -2 30 35 53 24 88 -28 98 -13 3 -26 10 -27 15 -3 8 -8 7 -17 0 -7 -6
-39 -13 -70 -15 -32 -2 -60 -7 -63 -10 -3 -2 -12 1 -19 7 -12 10 -14 8 -11 -7
2 -15 -3 -19 -27 -21 -16 -1 -38 -5 -48 -9 -13 -6 -16 -3 -11 9 3 9 2 16 -4
16 -6 0 -12 -6 -15 -12 -3 -7 -4 4 -2 24 1 21 -2 35 -6 32 -5 -3 -9 -12 -9
-21 0 -11 -6 -14 -22 -9 -13 3 -26 6 -31 6 -4 0 -5 11 -1 25 5 20 3 25 -14 25
-11 0 -22 6 -25 14 -6 15 -23 16 -46 2 -11 -7 -13 -5 -8 7 9 25 -34 27 -62 3
-17 -15 -25 -17 -28 -8 -6 16 -30 16 -36 0 -3 -9 -11 -5 -22 10 -9 13 -23 21
-30 18 -8 -3 -19 2 -26 10 -7 8 -18 13 -25 10 -8 -3 -20 2 -29 10 -8 8 -20 12
-26 9 -17 -11 22 -47 45 -41 26 7 50 -12 36 -29 -7 -9 -6 -16 5 -25 11 -9 15
-9 15 -1 0 7 5 9 11 5 8 -4 7 -9 -2 -15 -20 -13 -26 -11 -46 10 -10 11 -30 22
-45 26 -15 4 -32 13 -39 21 -6 8 -18 14 -26 14 -13 0 -48 32 -88 82 -11 13
-29 28 -40 32 -11 4 -15 10 -10 14 13 9 18 55 5 47 -6 -3 -13 1 -16 10 -5 13
-9 14 -15 4 -5 -9 -10 -5 -14 14 -4 15 -15 31 -23 36 -11 6 -17 23 -17 50 0
23 -2 41 -5 41 -17 0 1 55 25 78 15 15 25 21 21 15 -4 -7 -3 -13 3 -13 6 0 8
12 5 28 -5 23 1 35 31 66 26 27 33 41 25 46 -8 5 -9 10 -2 14 16 9 -16 96 -32
90 -15 -6 -50 42 -37 51 5 3 11 -1 14 -7 3 -7 4 -3 4 8 -1 12 -6 20 -13 17 -7
-3 -11 12 -10 47 1 27 6 50 11 50 6 0 6 3 -1 8 -6 4 -14 16 -19 27 -10 26 -13
107 -4 120 4 6 9 25 11 44 2 19 10 37 17 39 9 3 11 0 6 -9 -5 -7 5 -3 21 8 39
28 58 32 59 13 0 -8 5 -15 10 -15 21 0 33 -16 28 -35 -3 -11 -1 -20 4 -20 6 0
26 -11 45 -23 56 -39 118 -46 82 -10 -24 24 -8 31 66 27 39 -2 70 1 70 6 0 5
6 7 14 4 10 -4 16 5 21 25 8 36 7 36 47 15 21 -11 27 -18 19 -24 -8 -4 -2 -11
18 -20 17 -7 31 -19 31 -26 0 -8 5 -14 11 -14 15 0 0 91 -18 112 -40 45 -209
63 -308 33 -51 -15 -65 -13 -65 10 0 7 -5 15 -12 17 -6 2 1 16 18 32 28 27 31
28 119 22 50 -2 108 -12 130 -20 22 -8 65 -22 97 -31 48 -13 58 -19 67 -46 19
-55 14 -100 -16 -133 -16 -17 -22 -26 -14 -19 13 11 46 1 62 -20 9 -12 26 13
38 57 9 33 7 42 -9 63 -17 22 -18 59 -1 49 4 -3 13 -1 21 5 12 6 12 9 2 9 -10
0 -10 4 2 16 9 8 16 22 16 31 0 13 -2 13 -16 2 -14 -11 -18 -11 -29 4 -47 65
-50 67 -86 67 -24 0 -39 5 -43 15 -3 9 -11 15 -18 14 -26 -5 -90 14 -95 27 -3
8 -10 13 -17 12 -20 -4 -56 13 -56 27 0 8 -18 16 -49 20 -45 6 -54 4 -94 -24
-25 -17 -59 -32 -75 -33 -17 -1 -29 -5 -27 -8 2 -4 -5 -14 -16 -23 -15 -13
-19 -14 -19 -3 0 8 6 17 13 20 9 5 9 7 -1 12 -6 3 -9 10 -6 15 12 20 23 69 13
64 -10 -7 -13 28 -2 39 9 8 14 32 15 69 1 16 4 23 8 16 10 -16 50 93 44 119
-3 11 -1 23 5 26 6 4 11 22 11 40 0 28 5 36 33 49 28 14 92 17 132 7 15 -4 75
11 75 19 0 3 9 12 20 19 11 7 19 9 18 5 -6 -16 24 -12 72 10 14 6 30 12 35 12
6 1 35 9 66 19 31 9 63 14 72 10 17 -6 83 13 167 47 73 30 111 36 175 26 33
-4 70 -9 82 -10 13 -1 23 -5 23 -9 0 -4 18 -1 40 8 30 12 44 13 54 5 7 -6 16
-8 19 -4 4 3 7 0 7 -8 0 -12 2 -12 9 0 7 10 14 6 32 -18 12 -17 29 -31 36 -31
15 0 34 -40 25 -54 -3 -5 0 -6 6 -2 7 4 12 2 12 -4 0 -7 6 -10 12 -8 7 3 26
-8 42 -22 21 -20 29 -38 30 -66 2 -22 5 -46 9 -54 6 -15 25 -96 31 -135 9 -51
62 -163 91 -192 32 -32 45 -67 50 -128 8 -91 25 -245 32 -275 4 -19 8 -60 8
-90 l0 -55 20 20 c11 11 16 23 12 26 -9 7 13 49 25 49 4 0 15 17 23 38 27 64
44 85 60 72 8 -6 12 -17 10 -23 -2 -7 -6 -39 -9 -72 l-6 -60 20 35 c27 50 34
111 19 157 -7 21 -17 42 -21 48 -13 15 -9 25 9 25 15 0 15 1 0 18 -10 10 -14
21 -11 25 3 3 8 27 11 54 3 26 9 53 14 59 36 43 59 402 29 439 -4 6 -16 37
-25 70 -10 33 -24 69 -31 80 -8 11 -14 33 -14 50 0 43 -100 192 -121 180 -4
-3 -11 0 -15 6 -4 8 -3 9 4 5 18 -11 14 5 -3 18 -9 6 -22 29 -30 51 -9 28 -18
39 -30 37 -22 -4 -55 26 -56 52 -1 17 -2 18 -6 4 -5 -21 -23 -24 -23 -5 0 6
-13 18 -29 25 -16 7 -41 24 -55 37 -29 27 -42 32 -30 13 5 -7 -8 -2 -27 10
-34 23 -114 62 -127 62 -4 0 -29 11 -56 25 -27 14 -60 25 -72 25 -13 0 -27 6
-31 13 -13 20 -84 39 -133 34 -25 -3 -94 1 -155 9 -123 14 -188 15 -256 4z
m1208 -543 c31 -49 24 -47 -17 4 -18 23 -27 40 -20 37 8 -2 24 -21 37 -41z
m-1302 -812 c30 -14 29 -14 -15 -7 -25 4 -70 7 -100 6 -35 0 -47 2 -35 7 32
12 118 9 150 -6z m-157 -73 c2 -7 -2 -10 -12 -6 -9 3 -16 11 -16 16 0 13 23 5
28 -10z m-611 -74 c-3 -8 -6 -5 -6 6 -1 11 2 17 5 13 3 -3 4 -12 1 -19z m113
-195 c-1 -24 -2 -26 -11 -10 -5 9 -7 22 -4 27 10 17 15 11 15 -17z m250 -123
c0 -5 -2 -10 -4 -10 -3 0 -8 5 -11 10 -3 6 -1 10 4 10 6 0 11 -4 11 -10z m972
-782 c-6 -6 -8 -17 -5 -24 3 -8 -5 -18 -20 -23 -14 -5 -28 -15 -33 -22 -5 -9
-2 -10 9 -6 10 3 17 2 17 -4 0 -15 -30 -23 -43 -10 -8 8 -15 6 -29 -6 -10 -9
-18 -11 -18 -5 0 6 4 13 9 16 5 3 7 20 5 38 -3 26 -2 30 8 20 7 -7 14 -17 14
-22 1 -6 2 -15 3 -22 2 -22 44 34 44 59 0 16 2 20 7 13 4 -7 13 -9 19 -6 6 4
8 12 5 18 -5 7 -2 8 5 3 9 -5 9 -11 3 -17z m-132 -68 c-20 -13 -30 -12 -30 1
0 5 4 8 9 4 5 -3 13 0 16 6 4 5 10 8 13 4 4 -3 0 -10 -8 -15z m250 16 c0 -3
-4 -8 -10 -11 -5 -3 -10 -1 -10 4 0 6 5 11 10 11 6 0 10 -2 10 -4z m-277 -49
c-4 -7 0 -8 13 -3 12 4 15 4 9 -2 -15 -14 -68 -25 -60 -12 3 5 1 10 -6 10 -7
0 -5 8 7 19 20 19 51 10 37 -12z m-233 3 c0 -5 -7 -7 -15 -4 -8 4 -15 8 -15
10 0 2 7 4 15 4 8 0 15 -4 15 -10z m165 -20 c3 -5 1 -10 -4 -10 -6 0 -11 5
-11 10 0 6 2 10 4 10 3 0 8 -4 11 -10z"/>
<path d="M3340 4701 c0 -5 5 -13 10 -16 6 -3 10 -2 10 4 0 5 -4 13 -10 16 -5
3 -10 2 -10 -4z"/>
<path d="M3103 3733 c30 -8 18 -23 -13 -16 -21 4 -30 2 -30 -7 0 -8 -3 -11 -6
-7 -4 3 -19 0 -35 -8 -15 -8 -39 -15 -53 -15 -14 0 -27 -4 -31 -10 -4 -6 -14
-5 -29 1 -28 13 -97 -3 -122 -28 -15 -16 -15 -17 2 -23 16 -6 16 -7 1 -13 -9
-3 -17 -13 -17 -21 0 -31 103 -26 235 14 39 11 80 18 93 15 12 -3 22 -1 22 5
0 14 58 6 73 -9 6 -6 22 -11 37 -10 l25 1 -28 12 c-15 7 -25 15 -21 19 3 3 24
-6 45 -20 71 -47 60 1 -13 60 -55 44 -101 67 -130 66 -17 -1 -18 -3 -5 -6z
m47 -57 c8 -3 -3 -4 -25 -1 -22 2 -34 2 -27 -1 6 -3 12 -10 12 -15 0 -5 -9 -4
-19 3 -10 6 -17 17 -14 24 4 12 23 9 73 -10z m-76 -25 c4 -5 -3 -7 -14 -4 -23
6 -26 13 -6 13 8 0 17 -4 20 -9z m111 -9 c-3 -3 -11 0 -18 7 -9 10 -8 11 6 5
10 -3 15 -9 12 -12z"/>
<path d="M2690 3600 c-13 -9 -13 -11 0 -20 19 -13 33 -13 25 0 -3 6 -1 10 5
10 6 0 8 5 5 10 -8 12 -16 12 -35 0z"/>
<path d="M2876 3551 c2 -3 -10 -10 -28 -15 -22 -8 -33 -18 -34 -31 0 -11 -5
-29 -12 -41 -11 -20 -9 -21 46 -21 31 0 111 -3 177 -7 66 -4 126 -7 133 -6 46
3 51 5 40 17 -19 23 -131 73 -163 73 -18 0 -48 3 -66 7 l-34 7 35 6 c29 5 23
7 -32 11 -36 2 -64 2 -62 0z m51 -76 c3 -9 3 -18 1 -21 -9 -9 -59 16 -53 26
10 16 45 12 52 -5z m161 -17 c-3 -7 -12 -14 -21 -16 -12 -2 -15 1 -11 12 7 19
38 22 32 4z"/>
<path d="M3110 3516 c25 -12 57 -30 73 -40 15 -10 27 -14 27 -10 0 11 -57 50
-93 63 -49 19 -54 11 -7 -13z"/>
<path d="M2840 3410 c0 -5 4 -10 9 -10 6 0 13 5 16 10 3 6 -1 10 -9 10 -9 0
-16 -4 -16 -10z"/>
<path d="M2425 3262 c-12 -12 -15 -13 -9 -2 12 22 -64 -36 -108 -82 -35 -36
-61 -93 -51 -110 2 -5 14 -8 26 -8 36 -1 71 -33 62 -58 -3 -12 -13 -22 -21
-22 -8 0 -14 -4 -14 -8 0 -12 -47 -32 -75 -32 -15 0 -36 -14 -59 -41 -33 -39
-34 -43 -21 -69 14 -26 45 -58 45 -46 0 20 42 -21 62 -60 26 -54 54 -69 143
-80 22 -3 46 -11 54 -17 11 -9 15 -9 18 1 6 16 23 15 23 -2 0 -9 8 -12 25 -8
21 4 24 1 19 -13 -6 -15 -4 -16 14 -6 11 6 22 16 25 23 3 10 7 10 20 -1 10 -7
17 -9 17 -4 0 6 23 13 50 17 28 4 50 10 50 15 0 8 -26 12 -195 27 -42 4 -80
14 -95 24 -27 19 -66 79 -53 81 34 5 346 13 411 10 46 -1 58 -22 22 -41 -29
-16 -25 -32 5 -18 14 6 25 14 25 18 0 16 55 18 72 3 10 -9 25 -12 38 -8 20 6
21 12 16 47 -7 41 -43 97 -61 96 -18 -2 -45 14 -39 23 8 14 -3 10 -20 -7 -21
-21 -20 -36 5 -63 12 -12 18 -25 15 -28 -3 -4 -40 3 -81 15 -74 20 -76 20 -70
1 6 -17 1 -18 -55 -15 -34 2 -67 9 -73 16 -9 10 -9 11 2 5 9 -5 12 -4 7 3 -8
13 -37 17 -35 5 4 -27 -2 -25 -48 17 -12 11 -36 14 -85 13 -37 -1 -68 2 -68 8
0 5 3 8 8 7 14 -4 88 13 125 29 34 15 44 31 38 66 0 4 9 7 22 7 13 0 32 6 43
14 18 14 18 15 -8 21 -15 4 -32 4 -37 1 -6 -4 -30 11 -53 33 -36 32 -48 38
-73 34 -17 -3 -35 -10 -42 -15 -18 -14 -31 -2 -42 39 -9 32 -8 40 11 60 12 13
26 23 31 23 5 0 16 8 24 18 14 16 14 16 9 0 -10 -32 3 -19 19 19 18 42 16 49
-10 25z m-75 -306 c0 -11 -19 -15 -25 -6 -3 5 1 10 9 10 9 0 16 -2 16 -4z
m170 -10 c0 -3 -4 -8 -10 -11 -5 -3 -10 -1 -10 4 0 6 5 11 10 11 6 0 10 -2 10
-4z"/>
<path d="M3512 3155 c-4 -58 -32 -199 -41 -204 -13 -9 -24 -81 -11 -81 5 0 10
-7 10 -15 0 -8 -5 -14 -11 -12 -11 2 -42 -81 -34 -92 2 -4 -3 -17 -11 -31
l-15 -25 7 25 6 25 -17 -23 c-9 -12 -14 -31 -10 -41 10 -32 -15 -74 -78 -133
-34 -31 -64 -55 -68 -52 -7 4 -21 -46 -23 -83 -2 -27 -2 -27 16 -9 8 7 23 16
33 20 19 6 20 1 17 -117 -2 -67 -9 -147 -17 -178 -14 -58 -60 -146 -98 -188
-20 -22 -20 -23 -2 -11 40 25 118 159 143 245 37 128 51 298 23 280 -5 -3 -12
2 -15 11 -4 10 6 36 22 63 53 84 86 146 100 181 67 177 86 269 80 395 -2 44
-5 67 -6 50z m-172 -608 c0 -2 -12 -14 -27 -28 -24 -22 -24 -13 0 19 8 11 27
17 27 9z"/>
<path d="M2695 3073 c-37 -9 -40 -23 -6 -23 25 0 34 -5 38 -21 4 -15 11 -19
27 -15 11 3 25 6 29 6 4 0 -6 14 -23 30 -17 17 -34 29 -38 29 -4 -1 -16 -3
-27 -6z"/>
<path d="M2622 2986 c-18 -23 -20 -45 -7 -63 12 -15 17 -16 34 -6 17 11 20 10
23 -7 2 -14 7 -17 17 -11 12 8 12 12 -2 26 -24 24 -21 32 14 39 18 3 29 11 27
18 -6 16 -95 19 -106 4z m58 0 c0 -3 -4 -8 -10 -11 -5 -3 -10 -1 -10 4 0 6 5
11 10 11 6 0 10 -2 10 -4z"/>
<path d="M2566 2971 c-3 -5 1 -11 9 -15 9 -3 15 0 15 9 0 16 -16 20 -24 6z"/>
<path d="M2766 2928 c3 -4 12 -8 20 -8 8 0 14 4 14 8 0 4 -9 8 -19 8 -11 0
-17 -4 -15 -8z"/>
<path d="M2716 2915 c-8 -22 -3 -28 19 -23 14 3 14 5 2 22 -13 18 -14 18 -21
1z"/>
<path d="M1830 2840 c0 -5 5 -10 11 -10 5 0 7 5 4 10 -3 6 -8 10 -11 10 -2 0
-4 -4 -4 -10z"/>
<path d="M2059 2587 c6 -8 8 -17 4 -20 -3 -4 -1 -7 5 -7 7 0 12 9 12 20 0 12
-7 20 -16 20 -13 0 -14 -3 -5 -13z"/>
<path d="M2080 2535 c7 -8 16 -15 21 -15 5 0 6 7 3 15 -4 8 -13 15 -21 15 -13
0 -13 -3 -3 -15z"/>
<path d="M2696 2394 c-8 -21 -9 -20 13 -20 16 0 17 4 10 18 -12 22 -15 22 -23
2z"/>
<path d="M3156 2394 c-23 -23 -20 -30 4 -9 11 10 20 20 20 22 0 7 -9 2 -24
-13z"/>
<path d="M2255 2090 c3 -5 8 -10 11 -10 2 0 4 5 4 10 0 6 -5 10 -11 10 -5 0
-7 -4 -4 -10z"/>
<path d="M3243 1772 c4 -2 -13 -17 -38 -33 -54 -34 -60 -47 -7 -17 l37 22 -24
-27 c-36 -40 -12 -32 39 13 30 26 39 40 28 40 -9 0 -22 2 -30 3 -7 2 -9 2 -5
-1z"/>
<path d="M1889 1672 c-75 -48 -76 -55 -19 -86 l49 -27 21 21 c12 12 19 27 17
34 -3 7 3 19 13 26 17 13 17 15 2 36 -22 30 -29 30 -83 -4z"/>
<path d="M2507 1354 c6 -15 23 -19 23 -5 0 5 -7 11 -14 14 -10 4 -13 1 -9 -9z"/>
<path d="M1840 679 c0 -5 5 -7 10 -4 6 3 10 8 10 11 0 2 -4 4 -10 4 -5 0 -10
-5 -10 -11z"/>
<path d="M2545 500 c3 -5 8 -10 11 -10 2 0 4 5 4 10 0 6 -5 10 -11 10 -5 0 -7
-4 -4 -10z"/>
<path d="M3316 358 c4 -6 3 -8 -4 -5 -14 9 -43 -3 -36 -14 3 -5 8 -7 12 -5 4
2 47 0 96 -5 76 -8 93 -7 114 7 37 25 12 34 -96 34 -68 0 -91 -3 -86 -12z"/>
<path d="M2655 90 c3 -5 8 -10 11 -10 2 0 4 5 4 10 0 6 -5 10 -11 10 -5 0 -7
-4 -4 -10z"/>
</g>
</svg>
